<svg height="512pt" viewBox="0 -27 512.00098 512" width="512pt" xmlns="http://www.w3.org/2000/svg"><path d="m446.820312 366.378906c12.664063-19.410156 19.644532-41.054687 19.644532-60.941406 0-5.5625-4.511719-10.070312-10.074219-10.070312s-10.070313 4.507812-10.070313 10.070312c0 32.871094-25.402343 71.796875-55.46875 84.996094-5.09375 2.238281-7.410156 8.179687-5.171874 13.269531 1.65625 3.777344 5.351562 6.027344 9.226562 6.027344 1.351562 0 2.726562-.277344 4.042969-.855469 18.199219-7.988281 35.203125-23.082031 47.871093-42.496094zm0 0"/><path d="m501.929688 291.082031c-5.5625 0-10.070313 4.511719-10.070313 10.070313 0 52.214844-38.878906 111.757812-86.667969 132.734375-5.09375 2.234375-7.410156 8.175781-5.175781 13.265625 1.660156 3.777344 5.351563 6.027344 9.226563 6.027344 1.351562 0 2.726562-.273438 4.042968-.851563 26.523438-11.640625 51.359375-33.710937 69.921875-62.140625 18.566407-28.433594 28.792969-60.050781 28.792969-89.03125 0-5.5625-4.507812-10.074219-10.070312-10.074219zm0 0"/><path d="m45.230469 395.386719-21.546875-11.785157 17.1875-31.894531c2.640625-4.894531.808594-11.003906-4.089844-13.640625-4.898438-2.640625-11.003906-.808594-13.640625 4.085938l-21.933594 40.703125c-2.625 4.871093-.824219 10.953125 4.03125 13.609375l21.078125 11.535156-21.082031 34.699219c-2.886719 4.753906-1.375 10.949219 3.378906 13.835937 1.632813.992188 3.4375 1.464844 5.21875 1.464844 3.402344 0 6.722657-1.722656 8.617188-4.84375l26.554687-43.703125c1.425782-2.351563 1.828125-5.183594 1.117188-7.839844-.710938-2.65625-2.480469-4.90625-4.890625-6.226562zm0 0"/><path d="m124.675781 86.785156c-12.671875 19.417969-19.652343 41.054688-19.652343 60.929688 0 5.5625 4.507812 10.070312 10.070312 10.070312s10.070312-4.507812 10.070312-10.070312c0-32.871094 25.402344-71.78125 55.46875-84.96875 5.089844-2.234375 7.410157-8.175782 5.175782-13.265625-2.234375-5.09375-8.171875-7.414063-13.269532-5.179688-18.1875 7.980469-35.1875 23.066407-47.863281 42.484375zm0 0"/><path d="m79.652344 152.027344c0-52.222656 38.867187-111.761719 86.644531-132.734375 5.089844-2.234375 7.40625-8.175781 5.171875-13.265625-2.234375-5.09375-8.175781-7.410156-13.269531-5.175782-26.523438 11.640626-51.351563 33.710938-69.910157 62.144532-18.558593 28.429687-28.777343 60.046875-28.777343 89.03125 0 5.558594 4.507812 10.070312 10.070312 10.070312s10.070313-4.511718 10.070313-10.070312zm0 0"/><path d="m409.644531 279.875c0-.003906 0-.007812 0-.011719l.113281-138.351562s0 0 0-.003907v-.003906-40.164062c0-7.339844-3.078124-14.109375-8.449218-18.574219-5.441406-4.523437-12.792969-6.335937-20.183594-4.96875l-179.054688 33.332031c-13.996093 2.628906-24.957031 15.695313-24.957031 29.75v188.042969c-12.292969-7.636719-28.644531-10.109375-45.886719-6.769531-.003906 0-.003906 0-.007812.003906-34.855469 6.789062-62.160156 34.617188-62.160156 63.34375 0 12.597656 5.355468 23.945312 15.078125 31.964844 9.421875 7.769531 22.117187 11.855468 36.132812 11.855468 4.804688 0 9.765625-.480468 14.796875-1.457031 34.871094-6.789062 62.1875-34.617187 62.1875-63.347656v-159.769531c1.210938.175781 2.4375.285156 3.683594.285156 1.597656 0 3.214844-.148438 4.835938-.449219l43.101562-8.027343c5.46875-1.019532 9.074219-6.273438 8.058594-11.742188-1.019532-5.46875-6.277344-9.074219-11.746094-8.058594l-43.085938 8.023438c-1.523437.285156-2.824218.050781-3.671874-.652344-.972657-.808594-1.175782-2.109375-1.175782-3.058594v-40.1875c0-4.371094 4.066406-9.117187 8.519532-9.953125l179.03125-33.324219c1.496093-.277343 2.785156-.046874 3.625.648438.980468.816406 1.183593 2.132812 1.183593 3.089844v40.160156c0 4.386719-4.042969 9.128906-8.488281 9.953125l-43.414062 8.085937c-5.46875 1.015626-9.074219 6.273438-8.058594 11.742188 1.019531 5.46875 6.285156 9.074219 11.746094 8.058594l43.40625-8.082032c1.640624-.304687 3.242187-.761718 4.789062-1.339843l-.0625 73.894531c-12.222656-7.90625-28.472656-10.835938-45.613281-8.046875-.003907 0-.007813 0-.011719 0-35.039062 5.726563-62.484375 32.828125-62.484375 61.699219 0 12.582031 5.347656 24.058594 15.058594 32.308594 9.847656 8.371093 23.304687 12.816406 38.09375 12.816406 4.105469 0 8.3125-.339844 12.574219-1.035156 35.039062-5.695313 62.484374-32.785157 62.496093-61.679688zm-278.417969 128.214844c-13.585937 2.636718-26.398437.332031-34.273437-6.160156-5.070313-4.183594-7.75-9.863282-7.75-16.425782 0-18.777344 21-38.730468 45.863281-43.578125 13.597656-2.632812 26.425782-.328125 34.300782 6.171875 5.066406 4.179688 7.746093 9.855469 7.746093 16.417969 0 18.777344-21.015625 38.734375-45.886719 43.574219zm212.683594-86.414063c-13.578125 2.222657-26.433594-.488281-34.386718-7.246093-5.203126-4.425782-7.957032-10.289063-7.957032-16.964844 0-18.628906 20.878906-37.777344 45.59375-41.820313h-.003906c13.589844-2.207031 26.449219.515625 34.402344 7.277344 5.199218 4.421875 7.945312 10.277344 7.945312 16.929687 0 18.65625-20.875 37.808594-45.59375 41.824219zm0 0"/><path d="m293.4375 188.078125c.472656 0 .953125-.035156 1.4375-.101563l.195312-.027343c5.507813-.789063 9.332032-5.890625 8.546876-11.394531-.789063-5.507813-5.894532-9.328126-11.394532-8.546876l-.199218.027344c-5.503907.789063-9.332032 5.890625-8.542969 11.394532.71875 5.023437 5.027343 8.648437 9.957031 8.648437zm0 0"/><path d="m436.914062 65.027344 21.070313 11.511718-21.082031 34.722657c-2.886719 4.753906-1.375 10.949219 3.382812 13.835937 1.632813.988282 3.433594 1.460938 5.214844 1.460938 3.402344 0 6.722656-1.722656 8.617188-4.84375l26.554687-43.734375c1.425781-2.351563 1.832031-5.1875 1.117187-7.84375-.714843-2.65625-2.484374-4.902344-4.898437-6.222657l-21.535156-11.765624 17.183593-31.914063c2.640626-4.898437.808594-11.003906-4.089843-13.640625-4.898438-2.636719-11.003907-.804688-13.640625 4.09375l-21.9375 40.726562c-2.625 4.878907-.820313 10.957032 4.042968 13.613282zm0 0"/></svg>